# Blender 4.2.3 LTS
# www.blender.org
mtllib Concrete_Barrier_UV.mtl
o Plane.003
v -0.750000 0.000000 0.500000
v -1.500000 0.000000 0.500000
v -1.500000 -0.000000 -0.500000
v -0.750000 -0.000000 -0.500000
v -1.500000 0.805136 -0.138145
v -1.500000 0.805136 0.138145
v -1.500000 1.749534 0.138145
v -1.500000 1.749534 -0.138145
v 1.500000 0.000000 0.500000
v 1.500000 -0.000000 -0.500000
v 1.500000 0.805136 -0.138145
v 1.500000 0.805136 0.138145
v -0.750000 0.805136 -0.138145
v 0.750000 0.000000 0.500000
v 0.750000 0.805136 0.138145
v -0.750000 1.749534 0.138145
v -0.750000 1.749534 -0.138145
v 1.500000 1.749534 -0.138145
v 1.500000 1.749534 0.138145
v 0.750000 1.749534 0.138145
v -0.750000 0.805136 0.138145
v 0.000000 0.805136 0.138145
v 0.000000 1.749534 0.138145
v 0.750000 0.805136 -0.138145
v 0.750000 1.749534 -0.138145
v 0.000000 0.805136 -0.138145
v 0.000000 1.749534 -0.138145
v 0.000000 0.000000 0.500000
v 0.750000 -0.000000 -0.500000
v 0.000000 -0.000000 -0.500000
vn -0.0000 -1.0000 -0.0000
vn -1.0000 -0.0000 -0.0000
vn 1.0000 -0.0000 -0.0000
vn -0.0000 0.4099 -0.9121
vn -0.0000 0.4099 0.9121
vn -0.0000 1.0000 -0.0000
vn -0.0000 -0.0000 -1.0000
vn -0.0000 -0.0000 1.0000
vt 0.736811 0.157910
vt 0.736811 0.000000
vt 0.943025 0.000000
vt 0.943025 0.157910
vt 0.074620 0.801160
vt 0.131595 0.801160
vt 0.131595 1.000000
vt 0.074620 1.000000
vt 0.000000 0.631641
vt 0.206214 0.631641
vt 0.412429 1.000000
vt 0.206214 1.000000
vt 0.280834 0.830481
vt 0.337809 0.830481
vt 0.368405 0.473731
vt 0.368405 0.631641
vt 0.190421 0.631641
vt 0.190421 0.473731
vt 0.368405 0.157910
vt 0.368405 0.000000
vt 0.546389 0.000000
vt 0.546389 0.157910
vt 0.943025 0.473731
vt 1.000000 0.473731
vt 1.000000 0.631641
vt 0.943025 0.631641
vt 0.280834 0.631641
vt 0.337809 0.631641
vt 0.000000 0.631641
vt 0.000000 0.473731
vt 0.736811 0.000000
vt 0.736811 0.157910
vt 0.546389 0.631641
vt 0.546389 0.473731
vt 0.736811 0.473731
vt 0.736811 0.631641
vt 0.546389 0.315820
vt 0.736811 0.315821
vt 0.190422 0.000000
vt 0.190422 0.157910
vt 0.000000 0.157910
vt 0.000000 0.000000
vt 0.190422 0.315820
vt 0.000000 0.315820
vt 1.000000 0.000000
vt 1.000000 0.157910
vt 0.943025 0.157910
vt 1.000000 0.315820
vt 0.943025 0.315820
vt 0.368405 0.631641
vt 0.368405 0.473731
vt 0.368405 0.315820
vt 0.368405 0.000000
vt 0.368405 0.157910
vt 0.368405 0.315820
vt 0.736811 0.631641
vt 0.736811 0.473731
vt 0.736811 0.315820
s 1
usemtl Concrete
f 1/1/1 2/2/1 3/3/1 4/4/1
f 5/5/2 6/6/2 7/7/2 8/8/2
f 3/9/2 2/10/2 6/6/2 5/5/2
f 9/11/3 10/12/3 11/13/3 12/14/3
f 4/15/4 3/16/4 5/17/4 13/18/4
f 14/19/5 9/20/5 12/21/5 15/22/5
f 16/23/6 17/24/6 8/25/6 7/26/6
f 12/14/3 11/13/3 18/27/3 19/28/3
f 13/18/7 5/17/7 8/29/7 17/30/7
f 15/22/8 12/21/8 19/31/8 20/32/8
f 6/33/8 21/34/8 16/35/8 7/36/8
f 21/34/8 22/37/8 23/38/8 16/35/8
f 22/37/8 15/22/8 20/32/8 23/38/8
f 11/39/7 24/40/7 25/41/7 18/42/7
f 24/40/7 26/43/7 27/44/7 25/41/7
f 26/43/7 13/18/7 17/30/7 27/44/7
f 19/3/6 18/45/6 25/46/6 20/47/6
f 20/47/6 25/46/6 27/48/6 23/49/6
f 23/49/6 27/48/6 17/24/6 16/23/6
f 2/50/5 1/51/5 21/34/5 6/33/5
f 1/51/5 28/52/5 22/37/5 21/34/5
f 28/52/5 14/19/5 15/22/5 22/37/5
f 10/53/4 29/54/4 24/40/4 11/39/4
f 29/54/4 30/55/4 26/43/4 24/40/4
f 30/55/4 4/15/4 13/18/4 26/43/4
f 9/56/1 14/57/1 29/23/1 10/26/1
f 14/57/1 28/58/1 30/49/1 29/23/1
f 28/58/1 1/1/1 4/4/1 30/49/1
